<svg width="300" height="300" viewBox="0 0 300 300" fill="none" xmlns="http://www.w3.org/2000/svg">
<path d="M96.423 102.322H99.382C127.255 102.322 149.85 124.918 149.85 152.791V183.367C149.85 211.24 127.255 233.836 99.382 233.836H96.423C68.5503 233.836 45.9545 211.241 45.9542 183.368V152.791C45.9542 124.918 68.5501 102.322 96.423 102.322Z" fill="#083E45" stroke="black" stroke-width="0.328783"/>
<path d="M190.486 73.4707H193.953C226.604 73.471 253.072 99.9399 253.072 132.591V168.409C253.072 201.06 226.604 227.529 193.953 227.529H190.486C157.835 227.529 131.366 201.06 131.366 168.409V132.591C131.366 99.9398 157.835 73.4707 190.486 73.4707Z" fill="black" stroke="black" stroke-width="0.385146"/>
<path d="M96.5923 198V162.44C96.5923 156.172 95.1458 154.123 93.4582 154.002C82.73 152.918 73.0867 198 73.0867 198H62.3586V144.841H73.0867V172.325C73.0867 172.325 79.596 142.913 95.5074 143.997C104.427 144.48 107.441 154.364 107.441 161.958V172.325C107.803 170.396 114.432 142.913 129.741 143.997C138.661 144.48 141.675 154.364 141.675 161.958V198H130.947V162.44C130.947 156.172 129.38 154.123 127.692 154.002C117.084 152.918 107.441 197.518 107.441 198H96.5923Z" fill="white"/>
<path d="M198.926 164.891C213.873 182.731 229.784 193.661 238.463 198.161H214.516C183.175 180.642 167.103 139.015 167.103 139.015V198.161H152.959V98.031H200.211C218.212 98.031 232.999 112.014 232.999 127.604C232.999 137.89 226.891 146.569 218.534 151.712L198.926 164.891ZM170.156 110.246C175.139 127.765 182.693 142.39 191.211 154.605C198.765 149.462 209.694 142.23 210.176 141.908C215.159 138.533 218.694 133.229 218.694 127.604C218.694 118.603 209.694 110.246 200.211 110.246H170.156Z" fill="#48D7DE"/>
</svg>
